<svg width="152" height="27" viewBox="0 0 152 27" fill="none" xmlns="http://www.w3.org/2000/svg">
<path d="M0.285156 26V0.40625H9.25C12.3555 0.40625 14.7109 1.00391 16.3164 2.19922C17.9219 3.38281 18.7246 5.12305 18.7246 7.41992C18.7246 8.67383 18.4023 9.78125 17.7578 10.7422C17.1133 11.6914 16.2168 12.3887 15.0684 12.834C16.3809 13.1621 17.4121 13.8242 18.1621 14.8203C18.9238 15.8164 19.3047 17.0352 19.3047 18.4766C19.3047 20.9375 18.5195 22.8008 16.9492 24.0664C15.3789 25.332 13.1406 25.9766 10.2344 26H0.285156ZM5.55859 14.8555V21.7637H10.0762C11.3184 21.7637 12.2852 21.4707 12.9766 20.8848C13.6797 20.2871 14.0312 19.4668 14.0312 18.4238C14.0312 16.0801 12.8184 14.8906 10.3926 14.8555H5.55859ZM5.55859 11.1289H9.46094C12.1211 11.082 13.4512 10.0215 13.4512 7.94727C13.4512 6.78711 13.1113 5.95508 12.4316 5.45117C11.7637 4.93555 10.7031 4.67773 9.25 4.67773H5.55859V11.1289ZM42.2758 14.9082H32.1508V21.7637H44.0336V26H26.8773V0.40625H43.9984V4.67773H32.1508V10.7773H42.2758V14.9082ZM65.1766 20.7266H55.9305L54.1727 26H48.5652L58.0926 0.40625H62.9793L72.5594 26H66.952L65.1766 20.7266ZM57.3543 16.4551H63.7527L60.5359 6.875L57.3543 16.4551ZM97.6047 0.40625V17.2637C97.6047 20.0645 96.7258 22.2793 94.968 23.9082C93.2219 25.5371 90.8313 26.3516 87.7961 26.3516C84.8078 26.3516 82.4348 25.5605 80.677 23.9785C78.9191 22.3965 78.0227 20.2227 77.9875 17.457V0.40625H83.2609V17.2988C83.2609 18.9746 83.6594 20.1992 84.4563 20.9727C85.2648 21.7344 86.3781 22.1152 87.7961 22.1152C90.7609 22.1152 92.2668 20.5566 92.3137 17.4395V0.40625H97.6047ZM124.795 4.67773H116.955V26H111.681V4.67773H103.947V0.40625H124.795V4.67773ZM140.523 11.9375L145.85 0.40625H151.615L143.213 16.7188V26H137.852V16.7188L129.449 0.40625H135.232L140.523 11.9375Z" fill="#F13C6E"/>
</svg>
